<svg width="95" height="102" viewBox="0 0 95 102" fill="none" xmlns="http://www.w3.org/2000/svg">
<path d="M94.5823 63.3451C93.7296 68.1139 91.5717 71.9846 88.068 74.5516C87.4705 74.992 86.9136 75.3918 86.3799 75.7684C81.5247 79.1408 78.5314 79.9694 63.0258 82.2292C45.8206 84.744 40.9827 94.0152 24.6418 91.118C8.29513 88.2207 2.89457 71.6138 11.9496 52.7006C18.7714 38.4694 14.5542 27.1123 22.6174 15.4017C29.6943 5.11647 39.7066 4.31684 46.2789 3.6215C65.5144 1.57606 78.6301 15.8826 87.923 33.6542C93.747 44.797 96.0151 55.3371 94.5823 63.3451Z" fill="url(#paint0_linear_36_2683)"/>
<mask id="mask0_36_2683" style="mask-type:alpha" maskUnits="userSpaceOnUse" x="7" y="3" width="88" height="89">
<path d="M94.3902 63.0734C93.5374 67.8422 91.3795 71.713 87.8759 74.2799C87.2784 74.7203 86.7215 75.1201 86.1878 75.4967C81.3325 78.8691 78.3393 79.6977 62.8337 81.9576C45.6285 84.4724 40.7906 93.7435 24.4497 90.8463C8.10299 87.9491 2.70243 71.3421 11.7575 52.429C18.5793 38.1978 14.3621 26.8406 22.4252 15.13C29.5022 4.84481 39.5144 4.04517 46.0868 3.34984C65.3223 1.30439 78.4379 15.6109 87.7308 33.3826C93.5549 44.5253 95.823 55.0654 94.3902 63.0734Z" fill="url(#paint1_linear_36_2683)"/>
</mask>
<g mask="url(#mask0_36_2683)">
<path d="M34.2131 67.2217C34.2131 67.2217 33.314 60.4827 33.6794 58.1128C34.1783 54.8215 36.5856 48.5171 36.5856 48.5171L35.4661 46.1066L29.9959 49.2183L26.6895 60.6392L28.0584 69.1049L34.2131 67.2217Z" fill="url(#paint2_linear_36_2683)"/>
<path d="M32.6179 67.6968C32.6179 67.6968 31.7188 60.9579 32.0842 58.5879C32.5831 55.2967 34.9904 48.9923 34.9904 48.9923L33.8709 46.5818L28.4007 49.6934L25.0942 61.1143L26.4632 69.58L32.6179 67.6968Z" fill="url(#paint3_linear_36_2683)"/>
<path d="M31.1792 67.6041C31.1792 67.6041 30.2801 60.8651 30.6455 58.4952C31.1444 55.2039 33.5517 48.8996 33.5517 48.8996L32.4322 46.4891L26.962 49.6007L23.6555 61.0216L25.0245 69.4873L31.1792 67.6041Z" fill="url(#paint4_linear_36_2683)"/>
<path d="M70.3928 69.7886L40.13 78.7469C38.6101 79.1989 37.0149 78.3297 36.5683 76.8173L18.9164 17.3313C18.4639 15.8132 19.334 14.2197 20.848 13.7735L51.1167 4.81528C52.6365 4.36331 54.2317 5.23248 54.6784 6.74484L72.3245 66.2308C72.777 67.749 71.9126 69.3425 70.3928 69.7886Z" fill="#8272EA"/>
<path d="M68.1074 63.8203L38.79 72.5004C38.0649 72.7148 37.305 72.3034 37.0904 71.5791L20.9699 17.2328C20.7553 16.5085 21.1671 15.7494 21.8922 15.535L51.2096 6.85493C51.9347 6.64053 52.6946 7.05194 52.9092 7.77625L69.0297 62.1168C69.2443 62.8411 68.8325 63.6059 68.1074 63.8203Z" fill="#EDE7F9"/>
<path d="M56.6796 70.6115C57.0625 71.892 56.3258 73.2421 55.0438 73.6188C53.7618 74.0012 52.4102 73.2653 52.0332 71.9847C51.6503 70.7042 52.387 69.3541 53.669 68.9774C54.951 68.595 56.2968 69.3251 56.6796 70.6115Z" fill="#DBCEF3"/>
<path opacity="0.5" d="M26.4224 30.4152L29.6824 41.4015L34.88 39.8602C38.1922 38.8809 41.6727 40.7641 42.6531 44.0728L44.1439 49.0966L55.1422 45.8401L51.8764 34.8306L49.4342 26.6025L48.6163 23.8443L26.4224 30.4152Z" fill="#C0B8F4"/>
<path opacity="0.5" d="M49.192 53.9022L38.1963 57.1568L41.4544 68.1405L52.4501 64.8859L49.192 53.9022Z" fill="#C0B8F4"/>
<path opacity="0.5" d="M36.6898 57.5976L33.2471 58.6166L36.5052 69.6003L39.948 68.5813L36.6898 57.5976Z" fill="#C0B8F4"/>
<path d="M32.4436 55.9167L60.9082 47.4857L49.0455 7.49811" stroke="#C0B8F4" stroke-width="5.5514" stroke-miterlimit="10"/>
<path d="M29.1836 44.9246L34.9902 43.2036C37.0437 42.5952 39.1958 43.7657 39.8049 45.8169L41.9628 53.0948" stroke="#C0B8F4" stroke-width="5.5514" stroke-miterlimit="10"/>
<path d="M51.2788 50.3365L56.3139 67.3085" stroke="#C0B8F4" stroke-width="5.5514" stroke-miterlimit="10"/>
<path d="M32.4436 55.9167L33.6038 55.569" stroke="#9789ED" stroke-width="0.6939" stroke-miterlimit="10"/>
<path d="M34.3926 55.3372L59.3535 47.9493" stroke="#9789ED" stroke-width="0.6939" stroke-miterlimit="10" stroke-dasharray="4.27 4.27"/>
<path d="M59.7539 47.8276L60.9083 47.4857L60.566 46.3326" stroke="#9789ED" stroke-width="0.6939" stroke-miterlimit="10"/>
<path d="M60.3398 45.562L49.5039 9.03943" stroke="#9789ED" stroke-width="0.6939" stroke-miterlimit="10" stroke-dasharray="4.15 4.15"/>
<path d="M49.3877 8.657L49.0454 7.49811" stroke="#9789ED" stroke-width="0.6939" stroke-miterlimit="10"/>
<path d="M29.1836 44.9245L30.3438 44.5826" stroke="#9789ED" stroke-width="0.6939" stroke-miterlimit="10"/>
<path d="M31.1326 44.3509L34.9901 43.2094C37.0436 42.601 39.1957 43.7715 39.8048 45.8227L41.5044 51.5476" stroke="#9789ED" stroke-width="0.6939" stroke-miterlimit="10" stroke-dasharray="4.26 4.26"/>
<path d="M41.6265 51.9359L41.9687 53.0947" stroke="#9789ED" stroke-width="0.6939" stroke-miterlimit="10"/>
<path d="M51.2788 50.3365L51.6211 51.4954" stroke="#9789ED" stroke-width="0.6939" stroke-miterlimit="10"/>
<path d="M51.8298 52.1908L55.8672 65.802" stroke="#9789ED" stroke-width="0.6939" stroke-miterlimit="10" stroke-dasharray="3.77 3.77"/>
<path d="M55.9717 66.1554L56.3139 67.3085" stroke="#9789ED" stroke-width="0.6939" stroke-miterlimit="10"/>
<path opacity="0.5" d="M48.8218 38.6228C48.9529 36.3415 47.2078 34.386 44.924 34.2551C42.6402 34.1242 40.6826 35.8674 40.5515 38.1487C40.4205 40.43 42.1656 42.3854 44.4494 42.5164C46.7332 42.6473 48.6908 40.9041 48.8218 38.6228Z" fill="white"/>
<path d="M47.0792 37.6815C47.4737 39.0027 46.7196 40.3875 45.397 40.7816C44.0744 41.1756 42.688 40.4223 42.2936 39.1012C41.9049 37.78 42.6532 36.3951 43.9758 36.0011C45.2984 35.6071 46.6848 36.3604 47.0792 37.6815Z" fill="#FFAB36" stroke="white" stroke-width="1.7801" stroke-miterlimit="10"/>
<path d="M46.0525 56.1485C46.0525 56.2006 46.0409 56.2296 46.0409 56.2296C45.8205 57.2668 45.194 58.6054 44.4109 60.1872C43.5523 61.9082 42.5198 63.9073 41.6265 66.1208C39.4454 71.5386 39.7818 75.3514 37.3223 79.3785C36.748 80.3114 36.1331 81.1748 35.5414 81.9165C33.4125 84.5935 31.562 87.4966 30.5411 90.9037C29.4622 94.5195 28.7951 99.6244 28.2034 102.006L15.3372 97.7875C15.3372 97.7875 18.8002 87.0098 19.9952 80.717C21.1902 74.4185 20.0126 64.0521 20.0242 60.4422C20.03 56.8438 27.9307 47.7523 27.9307 47.7523L29.7 53.6974C29.7 53.6974 28.476 57.7594 28.3484 61.0796C28.3078 62.2153 28.6442 64.0927 28.9691 65.5819C29.2939 67.0363 31.0574 67.6389 32.1827 66.6539C32.7918 66.1208 33.4763 65.3559 34.2188 64.2665C36.9858 60.2046 37.6297 57.2205 41.8585 54.613C41.8585 54.613 45.0606 52.95 45.9539 54.752C46.1453 55.1113 46.1627 55.5864 46.0525 56.1485Z" fill="url(#paint5_linear_36_2683)"/>
<path d="M46.0525 56.1485C46.0525 56.2007 46.0409 56.2296 46.0409 56.2296C45.8205 57.2669 45.194 58.6054 44.4109 60.1873C43.9352 59.4803 42.8911 59.0863 42.4618 58.9415C42.3516 58.9067 42.2762 58.7908 42.2994 58.6807C42.5662 57.2784 44.0222 54.613 45.1302 54.6593C46.1395 54.6941 46.0815 55.8356 46.0525 56.1485Z" fill="url(#paint6_linear_36_2683)"/>
</g>
<path d="M58.3215 14.5383C58.3215 6.51877 51.3837 0.115884 43.1871 0.996643C36.9513 1.6688 31.8813 6.6926 31.1504 12.9159C30.756 16.2593 31.5971 19.3825 33.2503 21.932H33.2387L33.3664 22.1175C33.378 22.1349 33.3896 22.1522 33.4012 22.1754L44.0747 38.0638C44.3647 38.4984 45.0086 38.4984 45.2986 38.0638L56.1346 21.932H56.123C57.5094 19.7997 58.3215 17.2617 58.3215 14.5383ZM44.6896 11.2355C46.5052 11.2355 47.9844 12.7131 47.9844 14.5383C47.9844 16.352 46.5052 17.8296 44.6896 17.8296C42.8623 17.8296 41.3831 16.352 41.3831 14.5383C41.3889 12.7131 42.8623 11.2355 44.6896 11.2355Z" fill="url(#paint7_linear_36_2683)"/>
<path d="M94.5822 63.3451C93.7295 68.114 91.5716 71.9847 88.0679 74.5516C87.4704 74.992 86.9136 75.3918 86.3799 75.7685C83.7579 72.935 79.5233 68.6065 77.4118 67.7199C74.2098 66.3756 72.3883 67.6098 69.7257 66.8334C68.6584 66.5205 66.6745 65.547 64.679 64.307C61.6858 62.447 58.6578 59.9843 58.6404 58.2286C58.6288 56.7626 58.768 54.045 58.913 51.704C59.058 49.3573 59.2088 47.3756 59.2088 47.3756L53.0368 39.5878C53.0368 39.5878 45.6871 33.2834 43.7961 31.4871C41.8934 29.6851 41.4409 27.6744 41.4409 27.6744C40.9421 25.7506 41.8296 25.1538 43.1 25.2755H43.1232C43.1464 25.2697 43.158 25.2755 43.158 25.2755C43.158 25.2755 43.187 25.2755 43.2508 25.2813C44.0977 25.403 45.0897 25.8028 45.954 26.3359C46.2324 26.5039 46.6559 26.7762 47.2012 27.1123C50.4496 29.1636 57.689 33.8803 58.7796 35.1203C59.1972 35.5838 60.3922 36.9919 61.825 38.6723C62.3587 37.7104 63.049 36.6964 63.6059 36.8354C63.9017 36.905 65.1489 37.0672 66.8253 37.27C67.3068 36.7833 68.0203 36.1227 68.5076 36.0126C69.0934 35.8851 71.698 37.2932 73.0322 38.0407C73.4673 37.6235 73.9951 37.1889 74.3838 37.1078C75.0045 36.9629 77.8121 38.51 78.9722 39.1648C79.1521 39.2575 79.3087 39.3444 79.4595 39.4487L79.4711 39.4545C80.1846 39.9413 80.6603 40.8104 81.5478 44.8782C82.6848 50.1279 85.0225 55.1749 87.6445 57.8867C88.938 59.2195 91.8965 61.4329 94.5822 63.3451Z" fill="url(#paint8_linear_36_2683)"/>
<path d="M47.201 27.1124C46.8472 28.4393 46.0699 29.0883 45.7044 29.3316C45.5826 29.4128 45.4318 29.4186 45.3042 29.3432C44.3528 28.8101 41.7947 27.4542 42.0151 26.1853C42.1659 25.3045 42.9432 25.2639 43.1231 25.2697C43.1463 25.2639 43.1579 25.2697 43.1579 25.2697C43.1579 25.2697 43.1927 25.2697 43.2507 25.2755C44.0976 25.3914 45.0954 25.797 45.9539 26.3301C46.2323 26.5039 46.6558 26.7705 47.201 27.1124Z" fill="url(#paint9_linear_36_2683)"/>
<path d="M65.4447 60.8883C65.4447 60.8883 65.2243 62.7483 64.679 64.307C61.6858 62.447 58.6577 59.9844 58.6403 58.2286C58.6287 56.7626 58.7679 54.045 58.913 51.7041C59.058 49.3573 59.2088 47.3756 59.2088 47.3756C59.2088 47.3756 59.5279 47.7349 59.9745 48.239C61.7148 50.1975 63.0374 52.4979 63.8495 54.9837C64.1337 55.8529 64.3715 56.5656 64.4237 56.6873C64.5746 57.0234 65.4447 60.8883 65.4447 60.8883Z" fill="url(#paint10_linear_36_2683)"/>
<path opacity="0.2" d="M13.6261 44.5653C11.7873 50.9392 8.21396 54.4159 4.68126 53.6452C2.00708 53.0599 -2.8772 50.1395 2.24492 39.2286C7.36704 28.3176 6.64194 22.0653 9.07248 20.159C11.0506 18.606 14.4556 21.1093 15.1749 27.7671C15.8014 33.6427 14.4846 41.5753 13.6261 44.5653Z" fill="#C0B8F4"/>
<path opacity="0.2" d="M67.9334 83.9503C67.9334 83.9503 72.7712 83.6316 78.1312 82.4611C81.3971 81.7484 83.9552 80.5721 86.0551 79.7609C92.3026 77.3562 96.9665 84.8658 88.358 88.6959C80.2253 92.3175 67.8406 89.2986 64.8067 86.9808C61.7729 84.6688 67.9334 83.9503 67.9334 83.9503Z" fill="#C0B8F4"/>
<path d="M26.0456 12.2379L25.0189 14.6136L22.1533 21.2367L20.9235 24.0934L18.9164 17.337C18.4698 15.8189 19.3341 14.2254 20.8539 13.7734L26.0456 12.2379Z" fill="#6D5AE6"/>
<path d="M25.0189 14.6136L22.1533 21.2367L20.9699 17.2385C20.7553 16.5142 21.1671 15.7552 21.8922 15.5408L25.0189 14.6136Z" fill="#EDE7F9"/>
<path opacity="0.2" d="M87.3894 23.2822C90.2183 23.2822 92.5116 20.9914 92.5116 18.1656C92.5116 15.3399 90.2183 13.0491 87.3894 13.0491C84.5606 13.0491 82.2673 15.3399 82.2673 18.1656C82.2673 20.9914 84.5606 23.2822 87.3894 23.2822Z" fill="#C0B8F4"/>
<path d="M70.5669 26.8921C72.4923 26.8921 74.0532 25.333 74.0532 23.4097C74.0532 21.4863 72.4923 19.9272 70.5669 19.9272C68.6414 19.9272 67.0806 21.4863 67.0806 23.4097C67.0806 25.333 68.6414 26.8921 70.5669 26.8921Z" fill="#DBCEF3"/>
<path opacity="0.2" d="M65.6827 1.70937C65.6827 2.65387 64.917 3.41874 63.9715 3.41874C63.026 3.41874 62.2603 2.65387 62.2603 1.70937C62.2603 0.76487 63.026 0 63.9715 0C64.9112 0 65.6827 0.76487 65.6827 1.70937Z" fill="#C0B8F4"/>
<path opacity="0.2" d="M4.7044 60.8071C5.6495 60.8071 6.41565 60.0418 6.41565 59.0977C6.41565 58.1537 5.6495 57.3884 4.7044 57.3884C3.75931 57.3884 2.99316 58.1537 2.99316 59.0977C2.99316 60.0418 3.75931 60.8071 4.7044 60.8071Z" fill="#C0B8F4"/>
<path opacity="0.2" d="M56.6102 92.1842C58.5548 92.1842 60.1313 90.6095 60.1313 88.667C60.1313 86.7244 58.5548 85.1497 56.6102 85.1497C54.6656 85.1497 53.0891 86.7244 53.0891 88.667C53.0891 90.6095 54.6656 92.1842 56.6102 92.1842Z" fill="#C0B8F4"/>
<defs>
<linearGradient id="paint0_linear_36_2683" x1="51.2901" y1="6.12813" x2="51.2901" y2="82.3699" gradientUnits="userSpaceOnUse">
<stop offset="0.00537634" stop-color="#F2F1FD"/>
<stop offset="1" stop-color="#ABA1F1"/>
</linearGradient>
<linearGradient id="paint1_linear_36_2683" x1="51.098" y1="5.85646" x2="51.098" y2="82.0983" gradientUnits="userSpaceOnUse">
<stop offset="0.00537634" stop-color="#EDE7F9"/>
<stop offset="1" stop-color="#CAB6EE"/>
</linearGradient>
<linearGradient id="paint2_linear_36_2683" x1="32.1188" y1="59.1759" x2="33.6" y2="73.3802" gradientUnits="userSpaceOnUse">
<stop offset="0.00537634" stop-color="#FFD0BE"/>
<stop offset="0.8465" stop-color="#FF9F8B"/>
<stop offset="1" stop-color="#FF9581"/>
</linearGradient>
<linearGradient id="paint3_linear_36_2683" x1="29.9253" y1="53.4836" x2="31.1783" y2="69.7475" gradientUnits="userSpaceOnUse">
<stop offset="0.00537634" stop-color="#FFD0BE"/>
<stop offset="0.8465" stop-color="#FF9F8B"/>
<stop offset="1" stop-color="#FF9581"/>
</linearGradient>
<linearGradient id="paint4_linear_36_2683" x1="29.2157" y1="48.1855" x2="27.4235" y2="68.0786" gradientUnits="userSpaceOnUse">
<stop offset="0.00537634" stop-color="#FFD0BE"/>
<stop offset="0.8465" stop-color="#FF9F8B"/>
<stop offset="1" stop-color="#FF9581"/>
</linearGradient>
<linearGradient id="paint5_linear_36_2683" x1="33.4049" y1="56.0902" x2="25.8532" y2="99.2183" gradientUnits="userSpaceOnUse">
<stop offset="0.00537634" stop-color="#FFD0BE"/>
<stop offset="0.8465" stop-color="#FF9F8B"/>
<stop offset="1" stop-color="#FF9581"/>
</linearGradient>
<linearGradient id="paint6_linear_36_2683" x1="42.859" y1="60.1386" x2="45.739" y2="54.5293" gradientUnits="userSpaceOnUse">
<stop offset="0.00537634" stop-color="#FFD0BE"/>
<stop offset="0.8465" stop-color="#FF9F8B"/>
<stop offset="1" stop-color="#FF9581"/>
</linearGradient>
<linearGradient id="paint7_linear_36_2683" x1="44.6878" y1="0.915466" x2="44.6878" y2="38.3898" gradientUnits="userSpaceOnUse">
<stop stop-color="#ABA1F1"/>
<stop offset="1" stop-color="#6D5AE6"/>
</linearGradient>
<linearGradient id="paint8_linear_36_2683" x1="56.5488" y1="23.6458" x2="84.3995" y2="77.3016" gradientUnits="userSpaceOnUse">
<stop offset="0.00537634" stop-color="#FFD0BE"/>
<stop offset="0.8465" stop-color="#FF9F8B"/>
<stop offset="1" stop-color="#FF9581"/>
</linearGradient>
<linearGradient id="paint9_linear_36_2683" x1="42.4129" y1="27.876" x2="47.0226" y2="26.5087" gradientUnits="userSpaceOnUse">
<stop offset="0.00537634" stop-color="#FFD0BE"/>
<stop offset="0.8465" stop-color="#FF9F8B"/>
<stop offset="1" stop-color="#FF9581"/>
</linearGradient>
<linearGradient id="paint10_linear_36_2683" x1="61.4835" y1="60.7806" x2="62.8823" y2="49.7225" gradientUnits="userSpaceOnUse">
<stop offset="0.00537634" stop-color="#FF9581" stop-opacity="0"/>
<stop offset="0.9713" stop-color="#FF9581" stop-opacity="0.9711"/>
<stop offset="1" stop-color="#FF9581"/>
</linearGradient>
</defs>
</svg>
