<svg width="16" height="18" viewBox="0 0 16 18" fill="none" xmlns="http://www.w3.org/2000/svg">
<path fill-rule="evenodd" clip-rule="evenodd" d="M8.0999 0.900024C5.25958 0.900024 2.95705 3.16659 2.95705 5.96252V8.94658C2.95705 8.99656 2.94202 9.04542 2.91386 9.087L1.16206 11.6736C0.991116 11.926 0.899902 12.2226 0.899902 12.526C0.899902 13.3746 1.59877 14.0625 2.46085 14.0625H13.7389C14.6011 14.0625 15.2999 13.3746 15.2999 12.526C15.2999 12.2226 15.2087 11.926 15.0377 11.6736L13.286 9.087C13.2578 9.04542 13.2428 8.99656 13.2428 8.94658V5.96252C13.2428 3.16659 10.9402 0.900024 8.0999 0.900024ZM4.4999 5.96252C4.4999 4.00536 6.11167 2.41877 8.0999 2.41877C10.0881 2.41877 11.6999 4.00536 11.6999 5.96252V8.94658C11.6999 9.2964 11.8051 9.63839 12.0022 9.92945L13.754 12.516C13.756 12.519 13.757 12.5224 13.757 12.526C13.757 12.5282 13.7565 12.5309 13.7565 12.5309L13.7559 12.5326C13.7559 12.5326 13.754 12.5364 13.7517 12.5385C13.7495 12.5407 13.7457 12.5427 13.7457 12.5427C13.7457 12.5427 13.7429 12.5438 13.7389 12.5438H2.46085C2.45693 12.5438 2.45404 12.5427 2.45404 12.5427C2.45404 12.5427 2.45026 12.5407 2.44806 12.5385C2.44587 12.5364 2.44386 12.5326 2.44386 12.5326C2.44386 12.5326 2.44276 12.5298 2.44276 12.526C2.44276 12.5224 2.44382 12.519 2.44579 12.516L4.1976 9.92945C4.39471 9.63839 4.4999 9.2964 4.4999 8.94658V5.96252Z" fill="#191632"/>
<path d="M10.1412 15.3276C10.0149 16.3268 9.14912 17.1 8.0999 17.1C7.05067 17.1 6.18492 16.3268 6.0586 15.3276C6.04107 15.1889 6.15788 15.075 6.29989 15.075H9.89989C10.0419 15.075 10.1587 15.1889 10.1412 15.3276Z" fill="#191632"/>
</svg>
