<svg width="21" height="20" viewBox="0 0 21 20" fill="none" xmlns="http://www.w3.org/2000/svg">
<path d="M10.2501 3C5.83905 3 2.25006 6.14 2.25006 10C2.25006 11.582 2.85406 13.1 3.96306 14.32L2.37106 16.174C2.24306 16.322 2.21406 16.531 2.29606 16.708C2.37706 16.886 2.55506 17 2.75006 17H10.2501C14.661 17 18.25 13.86 18.25 10C18.25 6.14 14.661 3 10.2501 3ZM6.25005 11C5.69805 11 5.25005 10.552 5.25005 10C5.25005 9.448 5.69805 9 6.25005 9C6.80205 9 7.25005 9.448 7.25005 10C7.25005 10.552 6.80205 11 6.25005 11ZM10.2501 11C9.69805 11 9.25005 10.552 9.25005 10C9.25005 9.448 9.69805 9 10.2501 9C10.8021 9 11.2501 9.448 11.2501 10C11.2501 10.552 10.8021 11 10.2501 11ZM14.2501 11C13.6981 11 13.2501 10.552 13.2501 10C13.2501 9.448 13.6981 9 14.2501 9C14.8021 9 15.25 9.448 15.25 10C15.25 10.552 14.8021 11 14.2501 11Z" fill="#C6C5CD"/>
</svg>
