<svg width="20" height="21" viewBox="0 0 20 21" fill="none" xmlns="http://www.w3.org/2000/svg">
<path d="M10.44 13.7C10.44 14.14 10.08 14.5 9.63999 14.5H1.8C1.36 14.5 1 14.14 1 13.7C1 13.26 1.36 12.9 1.8 12.9H9.63999C10.08 12.9 10.44 13.26 10.44 13.7ZM18.6 12.9H17.92C17.48 12.9 17.12 13.26 17.12 13.7C17.12 14.14 17.48 14.5 17.92 14.5H18.6C19.04 14.5 19.4 14.14 19.4 13.7C19.4 13.26 19.04 12.9 18.6 12.9ZM3.86001 6.87998C3.86001 5.55998 4.94001 4.5 6.26001 4.5C7.58001 4.5 8.66001 5.57998 8.66001 6.87998C8.66001 8.17998 7.58001 9.26001 6.26001 9.26001C4.94001 9.26001 3.86001 8.19998 3.86001 6.87998ZM5.46001 6.87998C5.46001 7.31998 5.82001 7.66001 6.26001 7.66001C6.70001 7.66001 7.06001 7.29998 7.06001 6.87998C7.06001 6.45998 6.70001 6.1 6.26001 6.1C5.82001 6.1 5.46001 6.45998 5.46001 6.87998ZM16.08 13.72C16.08 15.04 15 16.1 13.68 16.1C12.36 16.1 11.28 15.02 11.28 13.72C11.28 12.42 12.36 11.34 13.68 11.34C15 11.32 16.08 12.4 16.08 13.72ZM14.48 13.72C14.48 13.28 14.12 12.94 13.68 12.94C13.24 12.94 12.88 13.3 12.88 13.72C12.88 14.14 13.24 14.5 13.68 14.5C14.12 14.5 14.48 14.14 14.48 13.72ZM1.8 7.7H2.26001C2.70001 7.7 3.06001 7.34 3.06001 6.9C3.06001 6.46 2.70001 6.1 2.26001 6.1H1.8C1.36 6.1 1 6.46 1 6.9C1 7.34 1.36 7.7 1.8 7.7ZM19.4 6.9C19.4 6.46 19.04 6.1 18.6 6.1H10.46C10.02 6.1 9.66001 6.46 9.66001 6.9C9.66001 7.34 10.02 7.7 10.46 7.7H18.6C19.04 7.7 19.4 7.34 19.4 6.9Z" fill="#191632"/>
</svg>
