<svg width="19" height="19" viewBox="0 0 19 19" fill="none" xmlns="http://www.w3.org/2000/svg">
<path fill-rule="evenodd" clip-rule="evenodd" d="M8.70837 3.01587C5.6478 3.01587 3.16671 5.37881 3.16671 8.29365C3.16671 11.2085 5.6478 13.5714 8.70837 13.5714C11.769 13.5714 14.25 11.2085 14.25 8.29365C14.25 5.37881 11.769 3.01587 8.70837 3.01587ZM1.58337 8.29365C1.58337 4.546 4.77334 1.50793 8.70837 1.50793C12.6434 1.50793 15.8334 4.546 15.8334 8.29365C15.8334 12.0413 12.6434 15.0794 8.70837 15.0794C4.77334 15.0794 1.58337 12.0413 1.58337 8.29365Z" fill="#C6C5CD"/>
<path fill-rule="evenodd" clip-rule="evenodd" d="M12.6215 12.0204C12.9307 11.726 13.4319 11.726 13.7411 12.0204L17.1848 15.3002C17.494 15.5947 17.494 16.072 17.1848 16.3665C16.8757 16.6609 16.3744 16.6609 16.0653 16.3665L12.6215 13.0867C12.3123 12.7923 12.3123 12.3149 12.6215 12.0204Z" fill="#C6C5CD"/>
</svg>
